FILE "mixedmode-repro.bin" BINARY
  TRACK 01 MODE1/2048
    INDEX 01 00:00:00
  TRACK 02 AUDIO
    INDEX 01 00:49:14
  TRACK 03 AUDIO
    INDEX 01 00:55:14
  TRACK 04 AUDIO
    INDEX 01 01:01:14
  TRACK 05 AUDIO
    INDEX 01 01:07:14
  TRACK 06 AUDIO
    INDEX 01 01:13:14
